<?xml version="1.0" encoding="utf-8"?>
<!-- Generator: Adobe Illustrator 19.2.1, SVG Export Plug-In . SVG Version: 6.00 Build 0)  -->
<svg version="1.1" id="layer" xmlns="http://www.w3.org/2000/svg" xmlns:xlink="http://www.w3.org/1999/xlink" x="0px" y="0px"
	 viewBox="0 0 652 652" style="enable-background:new 0 0 652 652;" xml:space="preserve">
<style type="text/css">
	.st0{fill:#000;}
	.st1{fill:#FFFFFF;}
	.st2{fill:#0082CA;}
</style>
<g>
	<polygon class="st0" points="143.7,310.6 128.5,310.6 128.5,299.5 172.8,299.5 172.8,310.6 157.6,310.6 157.6,351.2 143.7,351.2 	
		"/>
	<polygon class="st0" points="178.7,299.5 192.7,299.5 192.7,319.5 208.8,319.5 208.8,299.5 222.9,299.5 222.9,351.2 208.8,351.2 
		208.8,330.6 192.7,330.6 192.7,351.2 178.7,351.2 	"/>
	<g>
		<path class="st0" d="M240.2,351.2c-1.4,0-2.4-0.1-3.1-0.1c-0.7-0.1-1.3-0.2-2.1-0.4c-2.3-0.6-3.9-1.8-4.8-3.5
			c-1-1.7-1.5-4.1-1.5-7.2v-29.8c0-2.1,0.2-3.8,0.6-5c0.4-1.2,1-2.3,2-3.2c1.6-1.4,3.7-2.2,6.2-2.4c0.5-0.1,1.5-0.1,2.9-0.1h27.9
			v11.1H247c-1.7,0-2.8,0.3-3.4,0.9c-0.6,0.6-0.9,1.8-0.9,3.6v4.6h25.4v11.1h-25.4v5.1c0,1.1,0.1,2,0.3,2.5c0.3,0.6,0.6,0.9,1.2,1.1
			c0.6,0.2,1.4,0.3,2.6,0.3h21.5v11.2H240.2z"/>
		<path class="st0" d="M274.6,299.5h28.2c2.6,0,4.9,0.3,6.9,1c2.1,0.6,3.8,1.5,5.1,2.8c1.3,1.2,2.4,2.8,3.1,4.6
			c0.7,1.8,1.1,3.9,1.1,6.3c0,3.4-0.7,6.2-2.1,8.5c-0.4,0.7-0.8,1.2-1.2,1.8c-0.5,0.5-1.1,1-1.9,1.6c1.2,0.7,2.1,1.3,2.7,2.1
			c0.7,0.7,1.1,1.5,1.5,2.5c0.6,1.5,1,3.1,1,4.7c0,0.4,0,0.7,0.1,1.1v1.6v13.2h-14V341c0-1.5-0.3-2.9-0.8-4.2
			c-0.5-1.3-1.2-2.4-2.2-3.2c-0.9-0.8-1.9-1.3-3-1.6c-1.1-0.3-2.6-0.5-4.6-0.5h-5.8v19.8h-14V299.5z M300.5,320.3
			c1.7,0,2.9-0.4,3.6-1.1c0.7-0.7,1-2,1-3.8c0-1.6-0.4-2.9-1.1-3.6c-0.7-0.8-1.9-1.1-3.4-1.1h-11.9v9.6H300.5z"/>
		<path class="st0" d="M325.4,299.5h21.3l9.8,28.6h0.1l9.6-28.6h21.3v51.7h-14v-34.1h-0.1l-9.9,29.3c-0.5,1.3-1,2.4-1.5,3.1
			c-0.5,0.7-1.1,1.2-2,1.4c-0.8,0.3-1.9,0.4-3.3,0.4c-1.4,0-2.5-0.1-3.1-0.2c-0.6-0.2-1.2-0.5-1.8-0.9c-0.4-0.3-0.6-0.6-0.9-0.9
			c-0.2-0.3-0.4-0.7-0.6-1.1c-0.2-0.4-0.5-1.1-0.8-2.1l-10-29.2h-0.1v34.2h-14V299.5z"/>
		<path class="st0" d="M444.9,337.9c-1.1,3.5-2.8,6.3-5,8.6c-1.5,1.5-3.2,2.7-5.1,3.7c-2,0.9-4.2,1.6-6.6,2.1
			c-2.5,0.5-5.3,0.7-8.5,0.7c-2.1,0-4-0.1-5.9-0.3c-1.9-0.3-3.5-0.6-5-1.1c-1.5-0.5-2.9-1.1-4.2-1.9c-1.2-0.7-2.4-1.6-3.5-2.6
			c-1.6-1.5-3-3.3-4-5.3c-1.1-2-1.9-4.2-2.4-6.7c-0.5-2.5-0.8-5.3-0.8-8.3c0-3.2,0.3-6.1,0.7-8.9c0.5-2.7,1.2-5.2,2.2-7.3
			c1-2.1,2.2-4,3.6-5.6c2-2.2,4.6-3.8,7.8-4.8s7.1-1.6,11.6-1.6c3.4,0,6.2,0.2,8.5,0.6c2.3,0.4,4.4,1.1,6.1,2
			c1.8,0.9,3.4,2.1,4.9,3.7c1.6,1.7,3,3.5,4.1,5.5c1,2,1.9,4.2,2.3,6.6c0.5,2.5,0.8,5.3,0.8,8.5C446.6,330.3,446,334.4,444.9,337.9
			 M431.5,318.3c-0.5-2.1-1.3-3.9-2.7-5.5c-0.9-1.1-2.1-1.8-3.5-2.3c-1.4-0.5-3.2-0.7-5.4-0.7c-4.1,0-7,1-8.6,3
			c-0.8,0.9-1.4,2.1-2,3.4c-0.5,1.3-0.9,2.7-1.1,4.4c-0.3,1.6-0.4,3.5-0.4,5.6c0,3.1,0.3,5.7,1,7.8c0.6,2.1,1.6,3.9,3,5.3
			c1.8,1.8,4.5,2.6,8.2,2.6c2.1,0,4-0.3,5.6-0.9c1.5-0.6,2.8-1.5,3.9-2.8c1-1.2,1.8-2.8,2.2-4.7c0.5-1.9,0.7-4.2,0.7-7
			C432.5,323.6,432.2,320.8,431.5,318.3"/>
		<polygon class="st0" points="466.8,299.5 480.8,299.5 480.8,324.8 480.9,324.8 498.2,299.5 513.7,299.5 496,325.3 513.7,351.2 
			498.1,351.2 480.9,326.5 480.8,326.5 480.8,351.2 466.8,351.2 		"/>
		<rect x="518.1" y="299.5" class="st0" width="14" height="51.7"/>
		<path class="st0" d="M556.2,299.5l14.8,23.8h0.1v-23.8h14v51.7h-9.5c-1.5,0-2.7-0.2-3.7-0.5c-0.9-0.3-1.7-0.8-2.5-1.7
			c-0.8-0.8-1.8-2.2-2.9-4l-13.7-22.3h-0.1v28.5h-14v-51.7H556.2z"/>
		<path class="st0" d="M639,320.3v30.9h-19.6c-2.2,0-3.9-0.1-5.3-0.1c-1.3-0.1-2.5-0.3-3.6-0.4c-1.1-0.2-2.2-0.4-3.4-0.8
			c-2.7-0.8-5-1.8-6.9-3.1c-2-1.3-3.6-3-4.8-5c-1.3-2-2.3-4.3-2.8-6.8c-0.6-2.6-0.9-5.6-0.9-9c0-9.4,2.2-16.2,6.5-20.4
			c1.8-1.8,4-3.2,6.6-4.2c2.6-1,5.5-1.6,8.7-1.8c0.7,0,1.8-0.1,3.3-0.1h22.4v11.1h-22c-1.6,0-2.7,0.1-3.5,0.2
			c-0.7,0.1-1.4,0.2-2,0.4c-1.3,0.5-2.4,1.3-3.4,2.5c-0.9,1.2-1.6,2.6-2.1,4.2c-0.2,0.8-0.4,1.8-0.5,2.9c-0.1,1.1-0.2,2.3-0.2,3.4
			c0,2.3,0.2,4.3,0.4,6c0.3,1.8,0.6,3.2,1.1,4.5c0.5,1.2,1.2,2.2,2,2.9c0.9,0.9,2.1,1.5,3.7,1.9c1.5,0.4,3.6,0.6,6.1,0.6h6.1v-9
			h-8.8v-10.7H639z"/>
		<path class="st1" d="M101.6,356.9c0,2.6-2.2,4.8-4.8,4.8l-75.4,0c-2.6,0-4.7-2.1-4.7-4.8v-70.7h5.9c1,2.9,3.4,4.6,6.4,4.6
			c3.1,0,5.5-1.7,6.6-4.6h6.9c0.9,2.8,3.1,4.5,6.1,4.6c3.2,0.1,5.7-1.6,6.6-4.6h7.3c1.1,2.9,3.5,4.6,6.6,4.6c3.2,0,5.6-1.6,6.7-4.6
			h6.7c1.1,2.9,3.5,4.6,6.6,4.6c3.2,0,5.6-1.6,6.7-4.6h5.8V356.9z"/>
		<path class="st0" d="M21.4,362.8c-3.3,0-5.9-2.7-5.9-5.9V285h7.9l0.3,0.8c0.9,2.5,2.7,3.7,5.3,3.8h0.1c2.6,0,4.4-1.3,5.4-3.8
			l0.3-0.8h8.6l0.3,0.8c0.8,2.4,2.5,3.6,5,3.8c0.1,0,0.2,0,0.3,0c2.5,0,4.4-1.3,5.2-3.8l0.3-0.8h9l0.3,0.8c1,2.5,2.8,3.8,5.5,3.8h0
			c2.7,0,4.5-1.3,5.5-3.8L75,285h8.3l0.3,0.8c1,2.5,2.8,3.8,5.5,3.8c2.7,0,4.6-1.3,5.5-3.8l0.3-0.8h7.8l0,71.9c0,3.3-2.7,5.9-6,5.9
			L21.4,362.8z M17.8,356.8c0,2,1.6,3.6,3.5,3.6l75.4,0c2,0,3.6-1.6,3.6-3.6v-69.5h-3.8c-1.4,2.9-4.1,4.6-7.4,4.6c0.1,0,0.2,0,0.2,0
			c-0.1,0-0.2,0-0.3,0h0h0c-0.1,0-0.1,0-0.2,0h-0.1h0c-3.2-0.1-5.8-1.8-7.1-4.6h-5.1c-1.4,2.9-4.1,4.6-7.4,4.6h-0.1
			c-3.3,0-6-1.7-7.4-4.6H56c-1.3,2.9-4,4.6-7.1,4.6c-0.1,0-0.2,0-0.4,0c-3.1-0.1-5.7-1.8-6.9-4.6h-5.3c-1.3,2.9-4.1,4.6-7.3,4.6H29
			c-3.2,0-6-1.7-7.2-4.6h-3.9V356.8z M89.1,291.9L89.1,291.9L89.1,291.9C89.1,291.9,89.1,291.9,89.1,291.9
			C89.1,291.9,89.1,291.9,89.1,291.9C89.1,291.9,89.1,291.9,89.1,291.9"/>
		<path class="st0" d="M70.4,312.4c-0.4,0.4-0.2,1.4-0.2,1.4v38H48.5v-38c0,0,0-1-0.4-1.4c-0.4-0.4-1.5-0.3-1.5-0.3H24.1v-12.4H95
			v12.4H72.1C72.1,312.1,70.9,311.9,70.4,312.4"/>
		<polygon class="st2" points="42.6,339.5 42.6,351.9 24.1,351.9 24.1,314.7 42.6,314.7 42.6,327 47,327 47,339.5 		"/>
		<path class="st2" d="M71.8,326.9h1.4c0,0,1.5,0.2,2.4-0.6c1.2-1.1,0.9-3.5,0.9-3.5v-8.1h18c0,0,0.9,10.4-3.1,14.5
			c-4.2,4.2-14.8,3.1-14.8,3.1v2c0,0,10.7-1.1,14.8,3.1c4.1,4.1,3.1,14.5,3.1,14.5h-18v-8.1c0,0,0.2-2.3-0.9-3.5
			c-1.2-1.3-2.5-0.9-2.5-0.9h-1.3V326.9z"/>
		<path class="st0" d="M104.2,364h0.5c0.4,0,0.5,0.1,0.5,0.4c0,0.3-0.2,0.4-0.6,0.4h-0.5V364z M103.4,363.4v3.1h0.8v-1.2h0.5
			c0.5,0,0.5,0.1,0.6,0.7c0,0.2,0,0.3,0.1,0.4h0.7c0,0,0,0,0-0.1c0-0.1,0-0.1,0-0.2c0,0,0-0.1,0-0.2c0-0.5-0.1-0.8-0.2-0.9l-0.1-0.1
			l0.1-0.1c0.2-0.2,0.3-0.4,0.3-0.6c0-0.6-0.4-0.9-1.1-0.9H103.4z M104.7,362.5c1.3,0,2.4,1.1,2.4,2.5c0,1.4-1.1,2.5-2.4,2.5
			c-1.3,0-2.4-1.1-2.4-2.5C102.3,363.6,103.4,362.5,104.7,362.5 M104.7,361.8c-1.7,0-3.1,1.4-3.1,3.2c0,1.8,1.4,3.2,3.1,3.2
			c1.7,0,3.1-1.4,3.1-3.2C107.8,363.3,106.4,361.8,104.7,361.8"/>
	</g>
</g>
</svg>
