<svg id="layer" xmlns="http://www.w3.org/2000/svg" viewBox="0 0 623.7 83.2"><defs><style>.cls-1{fill:#fff;}.cls-2{fill:#0082ca;}</style></defs><polygon points="128.2 25.6 113 25.6 113 14.5 157.3 14.5 157.3 25.6 142.1 25.6 142.1 66.2 128.2 66.2 128.2 25.6"/><polygon points="163.2 14.5 177.2 14.5 177.2 34.5 193.3 34.5 193.3 14.5 207.4 14.5 207.4 66.2 193.3 66.2 193.3 45.6 177.2 45.6 177.2 66.2 163.2 66.2 163.2 14.5"/><path d="M240.2,77.2c-1.4,0-2.4-.1-3.1-.1a19.14,19.14,0,0,1-2.1-.4,7.16,7.16,0,0,1-4.8-3.5,14.3,14.3,0,0,1-1.5-7.2V36.2a16.59,16.59,0,0,1,.6-5,7.23,7.23,0,0,1,2-3.2,10.45,10.45,0,0,1,6.2-2.4,20.31,20.31,0,0,1,2.9-.1h27.9V36.6H247c-1.7,0-2.8.3-3.4.9s-.9,1.8-.9,3.6v4.6h25.4V56.8H242.7v5.1a7.65,7.65,0,0,0,.3,2.5,1.87,1.87,0,0,0,1.2,1.1,8.36,8.36,0,0,0,2.6.3h21.5V77H240.2Z" transform="translate(-15.5 -11)"/><path d="M274.6,25.5h28.2a20.89,20.89,0,0,1,6.9,1,11.46,11.46,0,0,1,5.1,2.8,12.47,12.47,0,0,1,3.1,4.6,17.29,17.29,0,0,1,1.1,6.3,16,16,0,0,1-2.1,8.5c-.4.7-.8,1.2-1.2,1.8a17.5,17.5,0,0,1-1.9,1.6,8.73,8.73,0,0,1,2.7,2.1,7,7,0,0,1,1.5,2.5,12.78,12.78,0,0,1,1,4.7,4.1,4.1,0,0,0,.1,1.1V77.3h-14V67a11.62,11.62,0,0,0-.8-4.2,7.68,7.68,0,0,0-5.2-4.8,17.77,17.77,0,0,0-4.6-.5h-5.8V77.3h-14V25.5Zm25.9,20.8a5,5,0,0,0,3.6-1.1c.7-.7,1-2,1-3.8a5.16,5.16,0,0,0-1.1-3.6,4.37,4.37,0,0,0-3.4-1.1H288.7v9.6Z" transform="translate(-15.5 -11)"/><path d="M325.4,25.5h21.3l9.8,28.6h.1l9.6-28.6h21.3V77.2h-14V43.1h-.1l-9.9,29.3a15,15,0,0,1-1.5,3.1,3.23,3.23,0,0,1-2,1.4,9.87,9.87,0,0,1-3.3.4,20.51,20.51,0,0,1-3.1-.2,5.13,5.13,0,0,1-2.7-1.8,10.91,10.91,0,0,1-.6-1.1,13.48,13.48,0,0,1-.8-2.1l-10-29.2h-.1V77.1h-14Z" transform="translate(-15.5 -11)"/><path d="M444.9,63.9a21.49,21.49,0,0,1-5,8.6,20.81,20.81,0,0,1-5.1,3.7,31.89,31.89,0,0,1-6.6,2.1,43.59,43.59,0,0,1-8.5.7,55.43,55.43,0,0,1-5.9-.3,31,31,0,0,1-5-1.1,20,20,0,0,1-4.2-1.9,21.14,21.14,0,0,1-3.5-2.6,19,19,0,0,1-4-5.3,23.14,23.14,0,0,1-2.4-6.7,42.51,42.51,0,0,1-.8-8.3,61.79,61.79,0,0,1,.7-8.9,29.79,29.79,0,0,1,2.2-7.3,24.45,24.45,0,0,1,3.6-5.6,17.23,17.23,0,0,1,7.8-4.8,39.13,39.13,0,0,1,11.6-1.6,50.44,50.44,0,0,1,8.5.6,20.82,20.82,0,0,1,6.1,2,17.13,17.13,0,0,1,4.9,3.7,27.15,27.15,0,0,1,4.1,5.5,23.44,23.44,0,0,1,2.3,6.6,43.09,43.09,0,0,1,.8,8.5,38.49,38.49,0,0,1-1.6,12.4M431.5,44.3a12.36,12.36,0,0,0-2.7-5.5,7.68,7.68,0,0,0-3.5-2.3,16.46,16.46,0,0,0-5.4-.7c-4.1,0-7,1-8.6,3a13.86,13.86,0,0,0-2,3.4,17.69,17.69,0,0,0-1.1,4.4,31.31,31.31,0,0,0-.4,5.6,25.06,25.06,0,0,0,1,7.8,12.06,12.06,0,0,0,3,5.3c1.8,1.8,4.5,2.6,8.2,2.6a16,16,0,0,0,5.6-.9,9.73,9.73,0,0,0,3.9-2.8,10.81,10.81,0,0,0,2.2-4.7,28,28,0,0,0,.7-7,27.18,27.18,0,0,0-.9-8.2" transform="translate(-15.5 -11)"/><polygon points="451.3 14.5 465.3 14.5 465.3 39.8 465.4 39.8 482.7 14.5 498.2 14.5 480.5 40.3 498.2 66.2 482.6 66.2 465.4 41.5 465.3 41.5 465.3 66.2 451.3 66.2 451.3 14.5"/><rect x="502.6" y="14.5" width="14" height="51.7"/><path d="M556.2,25.5,571,49.3h.1V25.5h14V77.2h-9.5a12.72,12.72,0,0,1-3.7-.5,5.6,5.6,0,0,1-2.5-1.7,23.19,23.19,0,0,1-2.9-4L552.8,48.7h-.1V77.2h-14V25.5Z" transform="translate(-15.5 -11)"/><path d="M639,46.3V77.2H619.4c-2.2,0-3.9-.1-5.3-.1s-2.5-.3-3.6-.4a23.68,23.68,0,0,1-3.4-.8,24.41,24.41,0,0,1-6.9-3.1,15.28,15.28,0,0,1-4.8-5,19.55,19.55,0,0,1-2.8-6.8,40.28,40.28,0,0,1-.9-9c0-9.4,2.2-16.2,6.5-20.4a18.67,18.67,0,0,1,6.6-4.2,29.21,29.21,0,0,1,8.7-1.8c.7,0,1.8-.1,3.3-.1h22.4V36.6h-22a27.38,27.38,0,0,0-3.5.2,11.8,11.8,0,0,0-2,.4,8.14,8.14,0,0,0-3.4,2.5,13.79,13.79,0,0,0-2.1,4.2,19.24,19.24,0,0,0-.5,2.9c-.1,1.1-.2,2.3-.2,3.4a50.11,50.11,0,0,0,.4,6,22.8,22.8,0,0,0,1.1,4.5,7.87,7.87,0,0,0,2,2.9,7.65,7.65,0,0,0,3.7,1.9,25,25,0,0,0,6.1.6h6.1v-9h-8.8V46.4H639Z" transform="translate(-15.5 -11)"/><path class="cls-1" d="M101.6,82.9a4.87,4.87,0,0,1-4.8,4.8H21.4a4.72,4.72,0,0,1-4.7-4.8V12.2h5.9A6.54,6.54,0,0,0,29,16.8a6.78,6.78,0,0,0,6.6-4.6h6.9a6.33,6.33,0,0,0,6.1,4.6,6.31,6.31,0,0,0,6.6-4.6h7.3a6.78,6.78,0,0,0,6.6,4.6,6.7,6.7,0,0,0,6.7-4.6h6.7a6.78,6.78,0,0,0,6.6,4.6,6.7,6.7,0,0,0,6.7-4.6h5.8V82.9Z" transform="translate(-15.5 -11)"/><path d="M21.4,88.8a5.91,5.91,0,0,1-5.9-5.9V11h7.9l.3.8A5.37,5.37,0,0,0,29,15.6h.1a5.46,5.46,0,0,0,5.4-3.8l.3-.8h8.6l.3.8a5.25,5.25,0,0,0,5,3.8H49a5.14,5.14,0,0,0,5.2-3.8l.3-.8h9l.3.8a5.49,5.49,0,0,0,5.5,3.8h0a5.49,5.49,0,0,0,5.5-3.8L75,11h8.3l.3.8a5.49,5.49,0,0,0,5.5,3.8,5.41,5.41,0,0,0,5.5-3.8l.3-.8h7.8V82.9a5.93,5.93,0,0,1-6,5.9Zm-3.6-6a3.56,3.56,0,0,0,3.5,3.6H96.7a3.59,3.59,0,0,0,3.6-3.6V13.3H96.5a8,8,0,0,1-7.4,4.6h-.4a7.85,7.85,0,0,1-7.1-4.6H76.5a8,8,0,0,1-7.4,4.6H69a8,8,0,0,1-7.4-4.6H56a7.63,7.63,0,0,1-7.1,4.6h-.4a7.56,7.56,0,0,1-6.9-4.6H36.3A7.81,7.81,0,0,1,29,17.9h0a7.57,7.57,0,0,1-7.2-4.6H17.9V82.8ZM89.1,17.9h0" transform="translate(-15.5 -11)"/><path d="M70.4,38.4c-.4.4-.2,1.4-.2,1.4v38H48.5v-38a2.46,2.46,0,0,0-.4-1.4c-.4-.4-1.5-.3-1.5-.3H24.1V25.7H95V38.1H72.1s-1.2-.2-1.7.3" transform="translate(-15.5 -11)"/><polygon class="cls-2" points="27.1 54.5 27.1 66.9 8.6 66.9 8.6 29.7 27.1 29.7 27.1 42 31.5 42 31.5 54.5 27.1 54.5"/><path class="cls-2" d="M71.8,52.9h1.4a3.4,3.4,0,0,0,2.4-.6c1.2-1.1.9-3.5.9-3.5V40.7h18s.9,10.4-3.1,14.5c-4.2,4.2-14.8,3.1-14.8,3.1v2s10.7-1.1,14.8,3.1,3.1,14.5,3.1,14.5h-18V69.8s.2-2.3-.9-3.5a2.54,2.54,0,0,0-2.5-.9H71.8Z" transform="translate(-15.5 -11)"/><path d="M104.2,90h.5c.4,0,.5.1.5.4s-.2.4-.6.4h-.5V90Zm-.8-.6v3.1h.8V91.3h.5c.5,0,.5.1.6.7,0,.2,0,.3.1.4h.7v-.5a1.44,1.44,0,0,0-.2-.9l-.1-.1.1-.1a.86.86,0,0,0,.3-.6c0-.6-.4-.9-1.1-.9h-1.7Zm1.3-.9a2.5,2.5,0,1,1-2.4,2.5,2.46,2.46,0,0,1,2.4-2.5m0-.7a3.2,3.2,0,1,0,3.1,3.2,3.2,3.2,0,0,0-3.1-3.2" transform="translate(-15.5 -11)"/></svg>